<?xml version="1.0" encoding="utf-8"?>
<!-- Generator: Adobe Illustrator 19.0.0, SVG Export Plug-In . SVG Version: 6.00 Build 0)  -->
<svg version="1.1" id="Layer_1" xmlns="http://www.w3.org/2000/svg" xmlns:xlink="http://www.w3.org/1999/xlink" x="0px" y="0px"
	 width="170.3px" height="48px" viewBox="-220 373 170.3 48" style="enable-background:new -220 373 170.3 48;"
	 xml:space="preserve">
<style type="text/css">
	.st0{enable-background:new    ;}
	.st1{fill:#36B37E;}
</style>
<g id="XMLID_59_" class="st0">
	<path class="st1" d="M-187.7,397.3c0-1.1,0.2-2.2,0.7-3.2c0.4-1,1-1.9,1.8-2.6c0.7-0.7,1.6-1.3,2.6-1.8c1-0.4,2.1-0.7,3.2-0.7
		c0.8,0,1.6,0.1,2.3,0.4c0.7,0.2,1.4,0.5,2,0.9c0.6,0.4,1.1,0.8,1.5,1.3c0.4,0.5,0.7,1,0.9,1.4c0-0.6,0-1.2,0.1-1.8
		c0-0.6,0.1-1.2,0.1-1.8h1.4v15.8h-1.6v-1.9c0-0.3,0-0.6,0-0.9c0-0.3,0-0.6,0-0.9c-0.2,0.5-0.5,1-0.9,1.4c-0.4,0.5-0.9,0.9-1.5,1.3
		c-0.6,0.4-1.2,0.7-2,0.9c-0.7,0.2-1.5,0.3-2.4,0.3c-1.1,0-2.2-0.2-3.2-0.7c-1-0.4-1.9-1-2.6-1.7c-0.7-0.7-1.3-1.6-1.8-2.6
		C-187.5,399.6-187.7,398.5-187.7,397.3z M-186,397.3c0,0.9,0.2,1.7,0.5,2.5c0.3,0.8,0.8,1.5,1.4,2.1c0.6,0.6,1.3,1.1,2.1,1.4
		s1.7,0.5,2.6,0.5s1.8-0.2,2.6-0.5c0.8-0.3,1.5-0.8,2.1-1.4c0.6-0.6,1-1.3,1.4-2.1c0.3-0.8,0.5-1.6,0.5-2.5c0-0.9-0.2-1.7-0.5-2.5
		c-0.3-0.8-0.8-1.5-1.4-2.1c-0.6-0.6-1.3-1.1-2.1-1.4c-0.8-0.3-1.6-0.5-2.6-0.5s-1.8,0.2-2.6,0.5s-1.5,0.8-2.1,1.4
		c-0.6,0.6-1,1.3-1.4,2.1C-185.8,395.6-186,396.4-186,397.3z"/>
	<path class="st1" d="M-151.3,397.4c0,1.1-0.2,2.2-0.7,3.2c-0.4,1-1,1.9-1.8,2.6c-0.7,0.7-1.6,1.3-2.6,1.8c-1,0.4-2.1,0.7-3.2,0.7
		c-0.9,0-1.7-0.1-2.4-0.3c-0.7-0.2-1.4-0.5-2-0.9c-0.6-0.4-1.1-0.8-1.5-1.3c-0.4-0.5-0.7-1-0.9-1.4c0,0.3,0.1,0.6,0.1,0.8
		c0,0.3,0.1,0.6,0.1,0.9v12.3h-1.8v-26.3h1.5c0,0.6,0,1.3,0,1.9c0,0.6,0,1.2,0,1.9c0.2-0.5,0.5-1,0.9-1.5c0.4-0.5,0.9-0.9,1.5-1.3
		c0.6-0.4,1.3-0.7,2-0.9c0.7-0.2,1.5-0.4,2.3-0.4c1.1,0,2.2,0.2,3.2,0.7c1,0.4,1.9,1,2.6,1.7c0.7,0.7,1.3,1.6,1.8,2.6
		C-151.5,395.2-151.3,396.3-151.3,397.4z M-153,397.4c0-0.9-0.2-1.8-0.5-2.6c-0.3-0.8-0.8-1.5-1.4-2c-0.6-0.6-1.3-1-2.1-1.4
		c-0.8-0.3-1.7-0.5-2.6-0.5c-0.9,0-1.8,0.2-2.6,0.5c-0.8,0.3-1.5,0.8-2.1,1.4c-0.6,0.6-1,1.3-1.4,2c-0.3,0.8-0.5,1.6-0.5,2.6
		c0,0.9,0.2,1.7,0.5,2.5c0.3,0.8,0.8,1.5,1.4,2.1c0.6,0.6,1.3,1.1,2.1,1.4c0.8,0.3,1.7,0.5,2.6,0.5c0.9,0,1.8-0.2,2.6-0.5
		c0.8-0.3,1.5-0.8,2.1-1.4c0.6-0.6,1-1.3,1.4-2.1C-153.2,399.1-153,398.3-153,397.4z"/>
	<path class="st1" d="M-131.2,397.4c0,1.1-0.2,2.2-0.7,3.2c-0.4,1-1,1.9-1.8,2.6c-0.7,0.7-1.6,1.3-2.6,1.8c-1,0.4-2.1,0.7-3.2,0.7
		c-0.9,0-1.7-0.1-2.4-0.3c-0.7-0.2-1.4-0.5-2-0.9c-0.6-0.4-1.1-0.8-1.5-1.3c-0.4-0.5-0.7-1-0.9-1.4c0,0.3,0.1,0.6,0.1,0.8
		c0,0.3,0.1,0.6,0.1,0.9v12.3h-1.8v-26.3h1.5c0,0.6,0,1.3,0,1.9c0,0.6,0,1.2,0,1.9c0.2-0.5,0.5-1,0.9-1.5c0.4-0.5,0.9-0.9,1.5-1.3
		c0.6-0.4,1.3-0.7,2-0.9c0.7-0.2,1.5-0.4,2.3-0.4c1.1,0,2.2,0.2,3.2,0.7c1,0.4,1.9,1,2.6,1.7c0.7,0.7,1.3,1.6,1.8,2.6
		C-131.4,395.2-131.2,396.3-131.2,397.4z M-133,397.4c0-0.9-0.2-1.8-0.5-2.6c-0.3-0.8-0.8-1.5-1.4-2c-0.6-0.6-1.3-1-2.1-1.4
		c-0.8-0.3-1.7-0.5-2.6-0.5c-0.9,0-1.8,0.2-2.6,0.5c-0.8,0.3-1.5,0.8-2.1,1.4c-0.6,0.6-1,1.3-1.4,2c-0.3,0.8-0.5,1.6-0.5,2.6
		c0,0.9,0.2,1.7,0.5,2.5c0.3,0.8,0.8,1.5,1.4,2.1c0.6,0.6,1.3,1.1,2.1,1.4c0.8,0.3,1.7,0.5,2.6,0.5c0.9,0,1.8-0.2,2.6-0.5
		c0.8-0.3,1.5-0.8,2.1-1.4c0.6-0.6,1-1.3,1.4-2.1C-133.1,399.1-133,398.3-133,397.4z"/>
	<path class="st1" d="M-118.1,390.9c-0.9,0-1.7,0.2-2.5,0.5c-0.8,0.3-1.4,0.7-2,1.2c-0.6,0.5-1,1.1-1.3,1.8
		c-0.3,0.7-0.5,1.5-0.5,2.3v8.6h-1.8v-15.8h1.6v1.5c0,0.5,0,0.9,0,1.3c0,0.4,0,0.8,0,1.3c0.6-1.4,1.5-2.4,2.8-3.2s2.5-1.2,3.8-1.2
		L-118.1,390.9z"/>
	<path class="st1" d="M-102.2,405.4h-1.8v-2.4l0.1-1.9c-0.6,1.3-1.5,2.4-2.7,3.2c-1.2,0.8-2.6,1.2-4.2,1.2s-2.8-0.4-3.7-1.3
		c-0.9-0.9-1.4-2-1.4-3.4v-11.4h1.8v10.9c0.1,0.9,0.4,1.7,1,2.4c0.6,0.7,1.5,1,2.7,1.1c0.8,0,1.7-0.1,2.4-0.4
		c0.8-0.3,1.5-0.7,2.1-1.2c0.6-0.5,1.1-1.1,1.4-1.8c0.3-0.7,0.5-1.5,0.5-2.3v-8.6h1.8V405.4z"/>
	<path class="st1" d="M-89,406.2c-1.4-2.8-2.9-5.6-4.3-8.4c-1.4-2.8-2.9-5.6-4.3-8.4h1.8c1.1,2.2,2.3,4.5,3.5,6.7
		c1.2,2.3,2.3,4.5,3.3,6.8c1-2.3,2.1-4.5,3.3-6.8c1.2-2.3,2.4-4.5,3.5-6.7h1.8C-83.3,395-86.1,400.6-89,406.2z"/>
	<path class="st1" d="M-63.9,395c-2.2,0.9-4.4,1.7-6.5,2.6c-2.2,0.9-4.3,1.7-6.5,2.6c0.5,1.1,1.2,1.9,2.3,2.6c1,0.7,2.2,1,3.5,1
		c0.9,0,1.7-0.2,2.4-0.5c0.8-0.3,1.4-0.7,2-1.3c0.2,0.2,0.4,0.4,0.5,0.7c0.2,0.2,0.3,0.4,0.5,0.7c-0.7,0.7-1.6,1.2-2.5,1.6
		c-0.9,0.4-1.9,0.6-3,0.6c-1.1,0-2.2-0.2-3.2-0.7c-1-0.4-1.9-1-2.6-1.7s-1.3-1.6-1.8-2.6c-0.4-1-0.7-2.1-0.7-3.2
		c0-1.1,0.2-2.2,0.7-3.2c0.4-1,1-1.9,1.8-2.6c0.7-0.7,1.6-1.3,2.6-1.7c1-0.4,2.1-0.7,3.2-0.7c0.8,0,1.6,0.1,2.4,0.4
		c0.8,0.3,1.4,0.7,2.1,1.2c0.6,0.5,1.2,1.1,1.7,1.8C-64.5,393.4-64.2,394.2-63.9,395z M-71.1,390.8c-0.8,0-1.6,0.1-2.4,0.4
		s-1.4,0.7-2,1.2c-0.6,0.5-1,1.1-1.4,1.8c-0.4,0.7-0.6,1.5-0.7,2.3c0,0.3,0,0.7,0,1c0,0.3,0,0.6,0.1,0.9c1.9-0.8,3.8-1.5,5.6-2.2
		s3.8-1.5,5.7-2.2c-0.5-1-1.2-1.7-2.1-2.3C-69.1,391.1-70.1,390.8-71.1,390.8z"/>
</g>
<path id="XMLID_35_" class="st1" d="M-201.9,387.9v-4.7h-16v27.6h20.7v-22.9H-201.9z M-209.5,403.1l-5-5l2.2-2.2l2.8,2.8l6.7-6.7
	l2.2,2.2L-209.5,403.1z"/>
</svg>
